<svg width="120" height="120" viewBox="0 0 120 120" fill="none" xmlns="http://www.w3.org/2000/svg">
<defs>
<radialGradient id="paint0_radial_3606_18969" cx="0" cy="0" r="1" gradientUnits="userSpaceOnUse" gradientTransform="translate(59.2942 62.1172) rotate(48.5763) scale(56.0121 55.5762)">
<stop stop-color="white"/>
<stop offset="0.295138" stop-color="#A1A1A1"/>
<stop offset="0.961805" stop-color="#222222"/>
</radialGradient>
<radialGradient id="paint1_radial_3606_18969" cx="0" cy="0" r="1" gradientUnits="userSpaceOnUse" gradientTransform="translate(60 60) rotate(45) scale(74.2462)">
<stop stop-color="white"/>
<stop offset="0.295138" stop-color="#A1A1A1"/>
<stop offset="0.961805" stop-color="#222222"/>
</radialGradient>
</defs>
<path d="M101.298 83.4778L100.98 82.9342C96.8084 75.8673 90.8783 69.974 83.7539 65.815C81.255 64.3617 78.6272 63.1372 75.9032 62.1566C78.6275 61.1683 81.2552 59.9369 83.7539 58.4777C90.905 54.3049 96.8512 48.383 101.021 41.2808L101.129 41.0928L101.348 40.684C101.559 40.2792 101.662 39.8272 101.645 39.3718C101.629 38.9164 101.494 38.4728 101.254 38.0838C101.014 37.6948 100.677 37.3735 100.275 37.1509C99.8733 36.9283 99.4201 36.812 98.9594 36.813H98.4967C87.1929 36.7938 76.2459 40.7275 67.5898 47.9192C69.5341 36.9103 67.5056 25.5756 61.8588 15.8964V15.8719L61.6976 15.5653C61.4754 15.133 61.1375 14.7694 60.7208 14.5141C60.3041 14.2587 59.8245 14.1215 59.3343 14.1173C58.8441 14.1131 58.3622 14.2421 57.9411 14.4902C57.5199 14.7383 57.1757 15.096 56.9459 15.5244L56.7434 15.8964C51.0966 25.5756 49.0681 36.9103 51.0124 47.9192C42.3563 40.7275 31.4093 36.7938 20.1055 36.813H19.9898H19.5105C19.0505 36.8338 18.6036 36.9713 18.2127 37.2122C17.8219 37.4532 17.5003 37.7895 17.2787 38.1889C17.0571 38.5883 16.9431 39.0373 16.9475 39.4929C16.952 39.9484 17.0748 40.3952 17.3041 40.7903L17.5396 41.1991C21.7133 48.3316 27.6745 54.2796 34.8483 58.4695C37.347 59.9287 39.9747 61.1601 42.699 62.1484C39.975 63.129 37.3472 64.3536 34.8483 65.8068C27.676 69.9931 21.7148 75.9369 17.5396 83.065L17.3041 83.4737C17.0672 83.8772 16.942 84.3353 16.9412 84.8019C16.9404 85.2684 17.064 85.7269 17.2995 86.1312C17.5351 86.5354 17.8742 86.871 18.2827 87.1042C18.6912 87.3373 19.1546 87.4598 19.6262 87.4592H20.0973C31.4025 87.4794 42.351 83.5456 51.0083 76.353C49.0732 87.3079 51.0728 98.5873 56.6608 108.237L56.9789 108.789C57.214 109.192 57.5524 109.528 57.96 109.761C58.3677 109.994 58.8302 110.117 59.3011 110.117C59.7687 110.114 60.2274 109.99 60.6318 109.758C61.0361 109.526 61.3722 109.193 61.6067 108.793L61.9208 108.245C67.5108 98.5963 69.512 87.3166 67.5774 76.3612C76.19 83.5168 87.072 87.4482 98.319 87.4674H98.9594C99.4311 87.468 99.8945 87.3455 100.303 87.1124C100.711 86.8792 101.051 86.5436 101.286 86.1393C101.522 85.7351 101.645 85.2766 101.644 84.81C101.644 84.3435 101.518 83.8854 101.282 83.4819L101.298 83.4778ZM54.6609 64.8095C51.1729 69.4973 46.759 73.4356 41.6866 76.3857C36.4815 79.3854 30.6943 81.2632 24.7044 81.8959C28.2164 77.1392 32.6933 73.16 37.8488 70.2129C43.0043 67.2658 48.7248 65.4156 54.6444 64.7808H54.6733L54.6609 64.8095ZM54.6609 59.4955C48.7355 58.8612 43.0095 57.0089 37.8501 54.0573C32.6906 51.1057 28.2116 47.1201 24.7002 42.3559C30.6983 42.9918 36.4927 44.8751 41.7032 47.8824C46.7755 50.8325 51.1894 54.7708 54.6775 59.4587L54.7105 59.5036L54.6609 59.4955ZM59.3135 101.643C56.9156 96.2523 55.6773 90.4266 55.6773 84.5366C55.6773 78.6465 56.9156 72.8208 59.3135 67.4296C59.3179 67.4136 59.3248 67.3984 59.3342 67.3847C59.3342 67.3847 59.3342 67.4133 59.3342 67.4296C61.736 72.8198 62.9765 78.6459 62.9765 84.5366C62.9765 90.4272 61.736 96.2533 59.3342 101.643H59.3135ZM59.3135 56.8181C59.3135 56.8181 59.3135 56.8508 59.3135 56.863C59.3042 56.8493 59.2972 56.8341 59.2928 56.8181C56.8968 51.4251 55.6614 45.5979 55.6649 39.707C55.6685 33.816 56.911 27.9903 59.3135 22.6002C61.714 27.9914 62.9537 33.818 62.9537 39.7091C62.9537 45.6002 61.714 51.4268 59.3135 56.8181V56.8181ZM63.933 59.4587C67.4195 54.7795 71.829 50.8483 76.8949 47.9029C82.1042 44.8962 87.8971 43.0128 93.8937 42.3763C90.3837 47.1409 85.9056 51.127 80.7467 54.0786C75.5878 57.0303 69.8622 58.8823 63.9371 59.5159H63.8875C63.9053 59.5053 63.9219 59.493 63.9371 59.4791L63.933 59.4587ZM76.9114 76.3653C71.8371 73.4164 67.4216 69.4779 63.933 64.789H63.9619C69.879 65.4233 75.5972 67.2724 80.7506 70.2181C85.9039 73.1638 90.379 77.1412 93.8896 81.8959C87.9024 81.2625 82.118 79.3848 76.9156 76.3857L76.9114 76.3653Z" fill="url(#paint0_radial_3606_18969)"/>
<path fill-rule="evenodd" clip-rule="evenodd" d="M60 4.23529C29.202 4.23529 4.23529 29.202 4.23529 60C4.23529 90.798 29.202 115.765 60 115.765C90.798 115.765 115.765 90.798 115.765 60C115.765 29.202 90.798 4.23529 60 4.23529ZM0 60C0 26.8629 26.8629 0 60 0C93.1371 0 120 26.8629 120 60C120 93.1371 93.1371 120 60 120C26.8629 120 0 93.1371 0 60Z" fill="url(#paint1_radial_3606_18969)"/>
</svg>
