<svg width="107" height="107" viewBox="0 0 107 107" fill="none" xmlns="http://www.w3.org/2000/svg">
    <path d="M90.3247 74.4345L90.041 73.9497C86.3213 67.6484 81.0336 62.3936 74.6811 58.6851C72.4529 57.3893 70.1098 56.2974 67.6809 55.423C70.11 54.5418 72.4531 53.4438 74.6811 52.1426C81.0575 48.4219 86.3595 43.1415 90.0779 36.8088L90.1736 36.6411L90.3689 36.2766C90.5575 35.9157 90.6489 35.5127 90.6344 35.1066C90.6198 34.7005 90.4997 34.305 90.2858 33.9581C90.0718 33.6112 89.7711 33.3248 89.4126 33.1263C89.0542 32.9278 88.6501 32.8241 88.2394 32.825H87.8267C77.7475 32.8079 67.9865 36.3154 60.2681 42.728C62.0018 32.9118 60.193 22.805 55.1579 14.1743V14.1525L55.0143 13.8791C54.8161 13.4937 54.5149 13.1695 54.1433 12.9418C53.7717 12.7141 53.344 12.5917 52.907 12.588C52.4699 12.5842 52.0402 12.6992 51.6646 12.9205C51.2891 13.1417 50.9822 13.4607 50.7773 13.8427L50.5968 14.1743C45.5617 22.805 43.7529 32.9118 45.4866 42.728C37.7682 36.3154 28.0072 32.8079 17.928 32.825H17.8248H17.3974C16.9872 32.8435 16.5888 32.9661 16.2403 33.181C15.8917 33.3958 15.6049 33.6957 15.4074 34.0518C15.2098 34.4079 15.1081 34.8083 15.1121 35.2145C15.1161 35.6207 15.2255 36.0191 15.43 36.3714L15.64 36.7359C19.3616 43.0957 24.677 48.3994 31.0736 52.1353C33.3016 53.4365 35.6447 54.5345 38.0738 55.4157C35.6449 56.2901 33.3018 57.382 31.0736 58.6778C24.6783 62.4106 19.3629 67.7104 15.64 74.0663L15.43 74.4308C15.2188 74.7906 15.1072 75.199 15.1065 75.6151C15.1058 76.0311 15.216 76.4399 15.426 76.8003C15.636 77.1608 15.9384 77.46 16.3026 77.668C16.6669 77.8759 17.0801 77.9851 17.5006 77.9845H17.9206C28.0011 78.0025 37.7636 74.4949 45.483 68.0815C43.7574 77.8496 45.5405 87.9071 50.5231 96.5113L50.8068 97.0033C51.0164 97.3632 51.3181 97.6622 51.6816 97.8701C52.0451 98.0781 52.4575 98.1877 52.8774 98.1879C53.2943 98.1851 53.7033 98.0747 54.0639 97.8676C54.4244 97.6605 54.7241 97.3638 54.9332 97.007L55.2132 96.5186C60.1977 87.9151 61.9821 77.8573 60.257 68.0888C67.9367 74.4692 77.6397 77.9747 87.6683 77.9918H88.2394C88.6599 77.9924 89.0731 77.8832 89.4374 77.6753C89.8016 77.4673 90.104 77.1681 90.314 76.8076C90.524 76.4472 90.6342 76.0384 90.6335 75.6223C90.6328 75.2063 90.5212 74.7978 90.31 74.4381L90.3247 74.4345ZM48.7399 57.7885C45.6297 61.9685 41.6939 65.4802 37.1711 68.1107C32.5298 70.7854 27.3696 72.4597 22.0286 73.0239C25.1602 68.7825 29.1521 65.2344 33.7491 62.6066C38.346 59.9787 43.4468 58.329 48.7251 57.763H48.7509L48.7399 57.7885ZM48.7399 53.0502C43.4564 52.4846 38.3507 50.833 33.7502 48.2012C29.1497 45.5694 25.1559 42.0155 22.0249 37.7674C27.3732 38.3344 32.5398 40.0137 37.1859 42.6952C41.7087 45.3257 45.6445 48.8374 48.7546 53.0174L48.7841 53.0575L48.7399 53.0502ZM52.8884 90.6321C50.7503 85.825 49.6461 80.6304 49.6461 75.3785C49.6461 70.1265 50.7503 64.932 52.8884 60.1248C52.8923 60.1105 52.8985 60.097 52.9068 60.0847C52.9068 60.0847 52.9068 60.1102 52.9068 60.1248C55.0485 64.9311 56.1546 70.126 56.1546 75.3785C56.1546 80.631 55.0485 85.8259 52.9068 90.6321H52.8884ZM52.8884 50.6628C52.8884 50.6628 52.8884 50.692 52.8884 50.7029C52.8801 50.6906 52.8739 50.6771 52.87 50.6628C50.7336 45.8541 49.6319 40.6582 49.6351 35.4054C49.6383 30.1527 50.7462 24.9581 52.8884 20.1519C55.0289 24.9591 56.1342 30.1544 56.1342 35.4073C56.1342 40.6602 55.0289 45.8556 52.8884 50.6628ZM57.0075 53.0174C60.1163 48.8451 64.0481 45.3398 68.5652 42.7134C73.2101 40.0325 78.3754 38.3531 83.7224 37.7856C80.5927 42.0341 76.5997 45.5883 71.9997 48.2202C67.3997 50.852 62.2943 52.5035 57.0112 53.0684H56.9669C56.9827 53.059 56.9976 53.048 57.0112 53.0356L57.0075 53.0174ZM68.5799 68.0924C64.0553 65.463 60.1181 61.9512 57.0075 57.7703H57.0333C62.3094 58.3358 67.408 59.9846 72.0031 62.6112C76.5982 65.2378 80.5885 68.7843 83.7187 73.0239C78.3802 72.4592 73.2225 70.7848 68.5836 68.1107L68.5799 68.0924Z" fill="#CACACA"/>
    <path fill-rule="evenodd" clip-rule="evenodd" d="M53.5 3.77647C26.0385 3.77647 3.77647 26.0385 3.77647 53.5C3.77647 80.9615 26.0385 103.224 53.5 103.224C80.9615 103.224 103.224 80.9615 103.224 53.5C103.224 26.0385 80.9615 3.77647 53.5 3.77647ZM0 53.5C0 23.9528 23.9528 0 53.5 0C83.0472 0 107 23.9528 107 53.5C107 83.0472 83.0472 107 53.5 107C23.9528 107 0 83.0472 0 53.5Z" fill="#CACACA"/>
</svg>
