<svg width="32" height="32" viewBox="0 0 32 32" fill="none" xmlns="http://www.w3.org/2000/svg">
<path d="M30.9557 18.8071L19.4359 30.863C19.1009 31.2207 18.7013 31.5053 18.2605 31.7005C17.8196 31.8956 17.3461 31.9974 16.8674 31.9999C16.3887 32.0025 15.9142 31.9057 15.4715 31.7152C15.0287 31.5247 14.6265 31.2443 14.288 30.8902C13.9495 30.5361 13.6814 30.1153 13.4994 29.6521C13.3173 29.189 13.2248 28.6926 13.2272 28.1918C13.2296 27.6911 13.3269 27.1957 13.5134 26.7345C13.7 26.2733 13.9721 25.8553 14.314 25.5048L19.8475 19.7639H3.6128C3.13836 19.7639 2.66856 19.6661 2.23024 19.4762C1.79191 19.2863 1.39364 19.0079 1.05816 18.6569C0.722685 18.306 0.456568 17.8893 0.275008 17.4308C0.0934482 16.9722 0 16.4808 0 15.9844C0 15.4881 0.0934482 14.9967 0.275008 14.5381C0.456568 14.0796 0.722685 13.6629 1.05816 13.312C1.39364 12.961 1.79191 12.6826 2.23024 12.4927C2.66856 12.3028 3.13836 12.205 3.6128 12.205H19.7675L14.3094 6.49518C13.9675 6.14465 13.6954 5.7267 13.5089 5.26548C13.3223 4.80427 13.225 4.30894 13.2226 3.80815C13.2202 3.30735 13.3127 2.81103 13.4948 2.34787C13.6769 1.8847 13.9449 1.4639 14.2834 1.10978C14.6219 0.755657 15.0242 0.475252 15.4669 0.284773C15.9097 0.0942934 16.3841 -0.002481 16.8628 4.83293e-05C17.3415 0.00257766 17.815 0.10436 18.2559 0.299508C18.6968 0.494655 19.0963 0.779298 19.4314 1.13698L30.9557 13.1929C31.3066 13.5598 31.5804 13.9994 31.7595 14.4834C31.9387 14.9674 32.0193 15.4851 31.9961 16.0036V16.1232C32.0031 16.6199 31.9146 17.113 31.7359 17.5732C31.5572 18.0334 31.2919 18.4514 30.9557 18.8023V18.8071Z" fill="#FCFCFC"/>
</svg>
