<svg width="19" height="19" viewBox="0 0 19 19" fill="none" xmlns="http://www.w3.org/2000/svg">
<path d="M19 9.44327C19 9.97253 18.6067 10.4099 18.0964 10.4792L17.9546 10.4887L1.04576 10.4887C0.468383 10.4887 0.000322342 10.0206 0.000322342 9.44327C0.000322342 8.914 0.393622 8.4766 0.903902 8.40737L1.04576 8.39783L17.9546 8.39783C18.5319 8.39783 19 8.86589 19 9.44327Z" fill="#EFEFEF"/>
<path d="M10.2164 17.1C10.6255 17.5073 10.6269 18.1693 10.2196 18.5784C9.8492 18.9504 9.26848 18.9854 8.85856 18.6826L8.74109 18.5816L0.307871 10.1846C-0.065193 9.81317 -0.0991309 9.23036 0.206074 8.82044L0.30781 8.70304L8.74102 0.304673C9.15014 -0.10275 9.81207 -0.10138 10.2195 0.307734C10.5899 0.679656 10.6224 1.26052 10.3179 1.66916L10.2164 1.78621L2.52753 9.44423L10.2164 17.1Z" fill="#EFEFEF"/>
</svg>
