<svg width="16" height="18" viewBox="0 0 16 18" fill="none" xmlns="http://www.w3.org/2000/svg">
<path d="M3.34918 2.11203C3.76219 1.86154 5.22302 1.11417 7.95383 1.11417C11.2169 1.11417 12.6669 2.18472 12.683 2.19255L13.2011 2.52281L13.8061 1.58309L13.3133 1.26401C13.2939 1.24985 13.2738 1.23568 13.2537 1.22227C12.781 0.914742 11.1051 0 7.95383 0C4.68439 0 3.00549 0.987057 2.60814 1.25656L2.10156 1.58496L2.70543 2.52467L3.34918 2.11203Z" fill="#FCFCFC"/>
<path d="M0.527822 6.88031L0.988548 7.15988L1.26252 6.65368C1.88018 5.61928 3.77042 3.20569 7.95349 3.20569C12.2402 3.20569 14.0667 5.82691 14.6668 6.68946L14.971 7.16286L15.926 6.56049L15.6077 6.06249C15.2766 5.5835 14.5818 4.58899 13.342 3.7104C11.8357 2.63985 10.0223 2.09674 7.95349 2.09674C3.17961 2.09674 0.994512 4.89651 0.274721 6.09455L0 6.56049L0.423823 6.8162C0.443097 6.83127 0.463399 6.84497 0.484582 6.8572C0.498582 6.86566 0.513015 6.87337 0.527822 6.88031Z" fill="#FCFCFC"/>
<path d="M12.5465 5.82693C11.2218 4.74855 9.63458 4.17749 7.95345 4.17749C4.31834 4.17749 1.90326 6.63768 1.11972 9.07811C0.402169 11.3318 1.27442 14.5975 1.31095 14.7373L1.47421 15.2521L2.58987 15.0124L2.41319 14.4532C2.40536 14.4253 1.5894 11.362 2.21153 9.41322C2.54701 8.36652 3.24518 7.34815 4.12563 6.62538C5.18798 5.75499 6.51275 5.29315 7.95345 5.29315C11.3299 5.29315 13.244 7.92517 13.7852 9.32301C14.2053 10.4014 14.1084 11.6274 13.5511 12.3796C13.345 12.6551 12.9816 12.9786 12.4284 12.9507C11.1681 12.8866 10.95 12.2637 10.647 11.0776C10.5016 10.5065 10.3525 9.91532 9.98087 9.43745C9.52835 8.85035 8.87006 8.56669 7.95755 8.56669C6.97609 8.56669 6.23281 8.89024 5.74413 9.52542C4.67805 10.915 5.37138 13.2876 5.40082 13.3875L5.40902 13.4192C5.46158 13.5631 6.75393 17.0219 10.215 17.8804L10.7655 18L11.0671 16.9298L10.4979 16.802C7.73129 16.115 6.57612 13.2835 6.48741 13.0599C6.38741 12.6969 6.32373 12.325 6.2973 11.9494C6.25704 11.4104 6.28537 10.6675 6.64881 10.1923C6.91533 9.84487 7.34363 9.67713 7.95345 9.67713C9.06389 9.67713 9.2499 10.2202 9.54065 11.3467C9.8232 12.4448 10.2116 13.9504 12.3676 14.0585C13.1955 14.0984 13.9429 13.7308 14.4677 13.0278C15.2554 11.9737 15.4048 10.36 14.8476 8.9223C14.4122 7.79061 13.5724 6.66563 12.5465 5.82693Z" fill="#FCFCFC"/>
<path d="M4.15777 12.1969C4.02842 11.1428 4.21033 9.55037 5.14743 8.51486C5.79752 7.79581 6.74246 7.43386 7.95018 7.43386C9.34765 7.43386 10.4055 8.05711 11.1003 9.28311C11.4423 9.89829 11.6682 10.5711 11.7668 11.268L11.8201 11.8156L12.9384 11.7336C12.9395 11.5391 12.927 11.3448 12.9011 11.1521C12.897 11.1044 12.7681 9.94214 12.1183 8.77578C11.2215 7.16883 9.78377 6.31821 7.95317 6.31821C6.40623 6.31821 5.17427 6.8095 4.29792 7.77605C3.1107 9.08592 2.86841 10.9911 3.03391 12.3367V12.349C3.331 14.3817 4.11378 16.0072 5.49857 17.461L5.93097 17.8792L6.71189 17.067L6.32646 16.7021C5.1068 15.4243 4.41609 13.9944 4.15777 12.1969Z" fill="#FCFCFC"/>
</svg>
