<svg width="24" height="24" viewBox="0 0 24 24" fill="none" xmlns="http://www.w3.org/2000/svg">
<path fill-rule="evenodd" clip-rule="evenodd" d="M0.836862 0.836865C1.3727 0.301029 2.09945 -2.24851e-07 2.85723 -2.24851e-07C3.61502 -2.24851e-07 4.34177 0.301029 4.8776 0.836865L12 7.95926L19.1224 0.836865C19.6582 0.301029 20.385 -2.24851e-07 21.1428 -2.24851e-07C21.9006 -2.24851e-07 22.6273 0.301029 23.1631 0.836865C23.699 1.3727 24 2.09945 24 2.85724C24 3.61502 23.699 4.34177 23.1631 4.87761L16.0407 12L23.1631 19.1224C23.699 19.6582 24 20.385 24 21.1428C24 21.9006 23.699 22.6273 23.1631 23.1631C22.6273 23.699 21.9005 24 21.1428 24C20.385 24 19.6582 23.699 19.1224 23.1631L12 16.0407L4.8776 23.1631C4.34177 23.699 3.61502 24 2.85723 24C2.09945 24 1.3727 23.699 0.836862 23.1631C0.301026 22.6273 -2.90987e-06 21.9006 -2.90987e-06 21.1428C-2.90987e-06 20.385 0.301027 19.6582 0.836862 19.1224L7.95926 12L0.836862 4.87761C0.301026 4.34177 -2.90987e-06 3.61502 -2.90987e-06 2.85724C-2.90987e-06 2.09945 0.301026 1.3727 0.836862 0.836865Z" fill="#E0E2E2"/>
</svg>
