<svg width="20" height="20" viewBox="0 0 20 20" fill="none" xmlns="http://www.w3.org/2000/svg">
<path d="M17.2 7.2998H9.10005C8.10594 7.2998 7.30005 8.10569 7.30005 9.0998V17.1998C7.30005 18.1939 8.10594 18.9998 9.10005 18.9998H17.2C18.1942 18.9998 19 18.1939 19 17.1998V9.0998C19 8.10569 18.1942 7.2998 17.2 7.2998Z" stroke="#797D83" stroke-width="2" stroke-linecap="round" stroke-linejoin="round"/>
<path d="M3.7 12.7H2.8C2.32261 12.7 1.86477 12.5104 1.52721 12.1728C1.18964 11.8352 1 11.3774 1 10.9V2.8C1 2.32261 1.18964 1.86477 1.52721 1.52721C1.86477 1.18964 2.32261 1 2.8 1H10.9C11.3774 1 11.8352 1.18964 12.1728 1.52721C12.5104 1.86477 12.7 2.32261 12.7 2.8V3.7" stroke="#797D83" stroke-width="2" stroke-linecap="round" stroke-linejoin="round"/>
</svg>
