<svg width="22" height="18" viewBox="0 0 22 18" fill="none" xmlns="http://www.w3.org/2000/svg">
<path d="M1 6.70586C1.0394 6.69997 1.04676 6.67125 1.04824 6.63848C1.05044 6.58325 1.04824 6.52801 1.05376 6.47315C1.06039 6.39951 1.07217 6.32808 1.08101 6.25554C1.08469 6.22829 1.08616 6.20068 1.08947 6.17306C1.1042 6.03977 1.11157 5.905 1.13587 5.77355C1.1841 5.51286 1.23344 5.2518 1.29678 4.99442C1.38005 4.65647 1.4807 4.32305 1.59834 3.99547C1.88938 3.18255 2.29387 2.41485 2.79981 1.71515C2.88118 1.60469 2.96035 1.49423 3.04246 1.38377C3.0141 1.34879 2.97471 1.3613 2.94083 1.36094C2.65252 1.36094 2.36385 1.36499 2.07554 1.35836C1.94151 1.35541 1.8119 1.32559 1.7158 1.21365C1.67173 1.16595 1.64027 1.108 1.62425 1.04507C1.60824 0.982129 1.60818 0.916191 1.62409 0.853227C1.63999 0.790262 1.67136 0.732262 1.71534 0.684481C1.75932 0.636701 1.81453 0.60065 1.87597 0.579596C1.94212 0.555746 2.01185 0.543296 2.08217 0.542775C2.70481 0.540198 3.32745 0.540934 3.95046 0.542775C4.07933 0.542775 4.19863 0.571496 4.2951 0.665389C4.3643 0.734886 4.40802 0.825701 4.41919 0.923135C4.42364 0.95978 4.42548 0.996693 4.42471 1.0336C4.42471 1.64409 4.42471 2.2547 4.42471 2.86544C4.43021 2.96939 4.40621 3.07278 4.35549 3.16369C4.1979 3.42143 3.84957 3.41849 3.68351 3.174C3.63051 3.08722 3.60485 2.98651 3.60987 2.88495C3.60692 2.63015 3.60987 2.37572 3.60987 2.12092C3.61032 2.07991 3.60097 2.03939 3.58262 2.00272C3.49793 2.11945 3.40698 2.23249 3.32929 2.35363C3.18863 2.57455 3.04872 2.79548 2.92205 3.0223C2.80017 3.24138 2.6864 3.46415 2.58514 3.69501C2.47468 3.94834 2.37232 4.20719 2.28026 4.46825C2.21067 4.66672 2.16207 4.87328 2.1061 5.07543C2.06928 5.20983 2.03246 5.34459 2.0019 5.48046C1.98091 5.57251 1.96986 5.66677 1.95403 5.75993C1.93562 5.86818 1.91684 5.97631 1.89769 6.08432C1.89475 6.10236 1.88922 6.12114 1.88775 6.13845C1.86934 6.32624 1.84688 6.51513 1.83583 6.70586C1.8153 6.9408 1.8067 7.17664 1.81006 7.41245C1.82184 7.70702 1.81963 8.00159 1.8664 8.29174C1.88996 8.43644 1.89843 8.58373 1.92015 8.72917C1.93636 8.83963 1.96287 8.95009 1.98422 9.06056C2.00042 9.14414 2.01478 9.22809 2.03172 9.31131C2.04424 9.3739 2.05639 9.43686 2.0737 9.49799C2.11936 9.65963 2.16538 9.82091 2.21546 9.98108C2.26811 10.1494 2.32187 10.318 2.38299 10.4833C2.44853 10.6608 2.51555 10.8379 2.59545 11.0087C2.69965 11.2297 2.81638 11.4477 2.93052 11.6638C3.07696 11.934 3.24092 12.1944 3.42134 12.4433C3.47326 12.5169 3.52628 12.5876 3.58225 12.6642C3.61686 12.6274 3.60913 12.5887 3.60913 12.5538C3.60913 12.3207 3.60913 12.0872 3.60913 11.8542C3.60638 11.756 3.62963 11.6588 3.67651 11.5725C3.70946 11.5135 3.75754 11.4644 3.8158 11.4303C3.87405 11.3961 3.94036 11.3781 4.0079 11.3781C4.08945 11.3749 4.16993 11.3974 4.23803 11.4424C4.30612 11.4874 4.3584 11.5526 4.38752 11.6288C4.41095 11.6883 4.42222 11.7519 4.42066 11.8159C4.42066 12.4632 4.42066 13.1105 4.42066 13.7578C4.42445 13.8297 4.40876 13.9012 4.37525 13.965C4.34175 14.0287 4.29167 14.0821 4.2303 14.1197C4.16675 14.1615 4.09242 14.1839 4.01637 14.1842C3.65773 14.1842 3.29873 14.1842 2.93973 14.1842C2.63595 14.1842 2.33218 14.1823 2.02841 14.1842C1.92864 14.1849 1.83197 14.1496 1.7561 14.0848C1.68023 14.02 1.63024 13.9301 1.61528 13.8314C1.58693 13.6606 1.71138 13.4397 1.91684 13.4014C1.971 13.3913 2.02597 13.3861 2.08106 13.3859C2.38447 13.3859 2.68824 13.3859 2.99201 13.3859C3.02405 13.3859 3.05608 13.3819 3.08369 13.38C3.10358 13.3266 3.06639 13.3064 3.04687 13.2828C2.92352 13.1142 2.79244 12.9514 2.67425 12.778C2.42602 12.4146 2.20345 12.0343 2.00816 11.6399C1.90174 11.4259 1.80969 11.2046 1.71948 10.9833C1.63921 10.787 1.56557 10.5874 1.49856 10.3846C1.44627 10.2289 1.40724 10.0683 1.36342 9.90965C1.32992 9.78887 1.29567 9.66847 1.26658 9.54696C1.24265 9.44607 1.22571 9.34334 1.20546 9.24135C1.18521 9.13935 1.1598 9.02705 1.14029 8.91953C1.12372 8.82932 1.10752 8.73911 1.09868 8.64816C1.0799 8.45007 1.06591 8.25197 1.05081 8.05387C1.04787 8.01484 1.05781 7.97066 1.00147 7.96071L1 6.70586Z" fill="#FCFCFC" stroke="#FCFCFC" stroke-width="0.3"/>
<path d="M9.28692 10.327C9.25746 10.2592 9.22911 10.1911 9.19781 10.1241C9.11129 9.93999 9.02328 9.75588 8.93675 9.57178C8.81107 9.30446 8.686 9.03689 8.56155 8.76908C8.47502 8.58314 8.38996 8.39645 8.3038 8.21088C8.17051 7.92772 8.03464 7.64568 7.90098 7.364C7.78536 7.11914 7.67196 6.87317 7.55671 6.62758C7.40721 6.31055 7.25588 5.99426 7.10712 5.67686C6.99666 5.44231 6.89025 5.20666 6.78015 4.97211C6.64171 4.67754 6.50068 4.38298 6.36187 4.08583C6.23704 3.81888 6.11443 3.55046 5.98924 3.2835C5.90382 3.10198 5.81213 2.9234 5.72928 2.74076C5.63834 2.54009 5.53561 2.34199 5.50026 2.12107C5.46654 1.93351 5.46954 1.74118 5.5091 1.55476C5.53797 1.42812 5.57967 1.30474 5.63355 1.18655C5.74225 0.945351 5.91083 0.735956 6.12327 0.578273C6.29426 0.452715 6.4872 0.360182 6.69215 0.30543C6.98805 0.225075 7.30089 0.232219 7.59281 0.325996C7.88473 0.419773 8.1432 0.596163 8.33694 0.83381C8.43349 0.962355 8.51422 1.10205 8.57738 1.24989C8.70552 1.52567 8.83513 1.8022 8.96584 2.07615C9.12344 2.41306 9.27992 2.75107 9.43789 3.08799C9.5675 3.36414 9.69895 3.6403 9.82856 3.91498C9.8709 4.00519 9.90993 4.09651 9.95227 4.18635C9.9662 4.20872 9.9821 4.22979 9.99977 4.24932C10.2789 3.9043 10.6162 3.67565 11.047 3.60826C11.4683 3.53822 11.9003 3.63647 12.2499 3.88184C12.2693 3.8583 12.2873 3.83371 12.304 3.8082C12.4754 3.51471 12.7351 3.28277 13.046 3.14543C13.3202 3.01965 13.6253 2.97714 13.9234 3.02318C14.2144 3.06201 14.4885 3.18182 14.7147 3.36893C14.8023 3.44257 14.8778 3.53057 14.9584 3.61305C14.9794 3.63441 14.9982 3.65797 15.0192 3.68191C15.0947 3.5998 15.1617 3.51732 15.2379 3.44515C15.4055 3.28617 15.6046 3.16412 15.8223 3.08688C16.0883 2.98863 16.3765 2.96657 16.6544 3.02318C17.1651 3.12738 17.5551 3.40796 17.7863 3.88369C17.9391 4.19777 18.0786 4.51811 18.2281 4.83403C18.364 5.12234 18.5058 5.40733 18.6409 5.69564C18.769 5.96848 18.8905 6.24427 19.018 6.51748C19.1111 6.71779 19.2105 6.91552 19.3052 7.11546C19.4922 7.5114 19.6785 7.9076 19.8641 8.30403C20.0059 8.60523 20.1506 8.90495 20.2886 9.20799C20.4201 9.49519 20.5512 9.78313 20.6701 10.0759C20.7291 10.2329 20.7783 10.3935 20.8174 10.5567C20.8564 10.704 20.8892 10.8513 20.9172 11.0008C20.9326 11.0818 20.9312 11.1658 20.9385 11.2482C20.9404 11.2692 20.9385 11.2979 20.9514 11.3094C21.0033 11.358 20.9989 11.422 20.9996 11.4806C21.0015 11.6367 20.996 11.7932 20.9901 11.9493C20.9838 11.9781 20.9748 12.0062 20.9632 12.0333C20.9475 12.0822 20.9372 12.1327 20.9323 12.1839C20.9229 12.3361 20.8982 12.4869 20.8586 12.6342C20.831 12.7498 20.81 12.8665 20.778 12.9807C20.7345 13.1368 20.6878 13.2922 20.6351 13.4453C20.5141 13.7906 20.3596 14.1232 20.1738 14.4384C19.9722 14.7884 19.7418 15.1209 19.4848 15.4326C19.3799 15.5539 19.2483 15.6493 19.1004 15.7113C18.8091 15.8468 18.5179 15.9827 18.227 16.1189C17.9844 16.2327 17.7425 16.3476 17.4998 16.461C17.2966 16.556 17.0922 16.6488 16.8893 16.7441C16.6482 16.8572 16.4077 16.9724 16.1665 17.0862C15.8425 17.2394 15.5203 17.3955 15.1937 17.542C15.0609 17.6031 14.9223 17.6505 14.7799 17.6834C14.6217 17.7187 14.4599 17.7349 14.2979 17.7317C14.1814 17.7331 14.0649 17.7255 13.9496 17.7092C13.806 17.6853 13.6657 17.6426 13.5235 17.6087C13.3267 17.557 13.1345 17.4887 12.9491 17.4047C12.6439 17.2739 12.3486 17.1212 12.0654 16.9477C11.7311 16.7445 11.4026 16.5302 11.09 16.2967C10.8073 16.0865 10.5289 15.8704 10.252 15.6528C10.0152 15.4664 9.78216 15.2753 9.54945 15.0839C9.35504 14.9244 9.1632 14.7617 8.97063 14.6C8.67974 14.3559 8.39033 14.1096 8.09797 13.8673C7.87705 13.6854 7.65612 13.5054 7.43262 13.3297C7.1575 13.1149 6.86951 12.917 6.57027 12.7373C6.25497 12.5531 6.00255 12.2781 5.84601 11.9482C5.77237 11.795 5.71272 11.6349 5.70682 11.4596C5.70498 11.3963 5.68399 11.3326 5.68584 11.2692C5.68935 11.0769 5.72803 10.8868 5.79998 10.7084C5.92851 10.3861 6.15741 10.1137 6.45282 9.93152C6.74408 9.75255 7.08566 9.6732 7.42599 9.70544C7.62151 9.72017 7.80083 9.78718 7.98125 9.85272C8.18119 9.92636 8.38113 10 8.58106 10.0762C8.76222 10.1447 8.94301 10.2147 9.1238 10.2839L9.26814 10.3384L9.28692 10.327ZM20.1616 11.672C20.1575 11.4199 20.1269 11.1689 20.0703 10.9231C20.0552 10.8609 20.0427 10.7979 20.0261 10.7361C20.0035 10.6264 19.9733 10.5185 19.9355 10.4131C19.8188 10.1355 19.694 9.86082 19.5673 9.58761C19.4502 9.33207 19.3269 9.07948 19.2079 8.82505C19.0559 8.49955 18.9071 8.17258 18.755 7.84746C18.603 7.52233 18.4494 7.20198 18.2974 6.8787C18.1902 6.65078 18.0853 6.42138 17.9778 6.19346C17.825 5.86944 17.6696 5.54615 17.5171 5.22176C17.3717 4.91209 17.2303 4.60022 17.0841 4.29056C16.9737 4.05343 16.801 3.89105 16.5355 3.82477C16.3808 3.78571 16.2179 3.79443 16.0682 3.84981C15.9205 3.90125 15.7921 3.99657 15.7 4.12302C15.6409 4.20017 15.5965 4.28754 15.5689 4.38077C15.5398 4.48828 15.5159 4.59801 15.5439 4.71547C15.5748 4.84434 15.64 4.95628 15.6912 5.07447C15.77 5.25158 15.8591 5.42427 15.9408 5.60028C16.0572 5.85103 16.1713 6.10325 16.2855 6.3551C16.3429 6.48214 16.365 6.61285 16.2984 6.74246C16.2074 6.92141 16.0008 7.00831 15.8307 6.95123C15.77 6.93123 15.7142 6.89843 15.6672 6.85505C15.6202 6.81167 15.5831 6.75871 15.5583 6.69975C15.4658 6.50165 15.3742 6.30282 15.2803 6.10546C15.1915 5.91878 15.0962 5.73467 15.01 5.54725C14.9109 5.33332 14.8196 5.11608 14.7206 4.90215C14.6215 4.68822 14.5177 4.48865 14.4234 4.27877C14.2916 3.98421 14.0534 3.84576 13.7474 3.80673C13.6174 3.79053 13.4919 3.82735 13.3733 3.87816C13.1115 3.98863 12.9543 4.19482 12.8946 4.4673C12.8636 4.60318 12.8781 4.74549 12.9359 4.87233C13.0169 5.04759 13.1012 5.22139 13.1833 5.39629C13.2695 5.57818 13.356 5.76008 13.4411 5.94308C13.5515 6.18278 13.662 6.42175 13.7688 6.66366C13.8115 6.76013 13.8424 6.85513 13.7993 6.97001C13.7334 7.14602 13.5858 7.26458 13.3972 7.25353C13.2275 7.2447 13.1133 7.15338 13.0427 7.00352C12.972 6.85366 12.9094 6.70601 12.8394 6.55872C12.7289 6.32381 12.613 6.09036 12.5018 5.85544C12.3438 5.52001 12.1855 5.18457 12.0316 4.84729C11.9859 4.73911 11.9152 4.64335 11.8253 4.56792C11.7353 4.49249 11.6287 4.43957 11.5142 4.41354C11.3197 4.36483 11.114 4.38889 10.9359 4.48117C10.7579 4.57346 10.6197 4.72762 10.5473 4.91467C10.5114 4.99799 10.4929 5.08777 10.4929 5.17849C10.4929 5.26922 10.5114 5.35899 10.5473 5.44231C10.6614 5.70031 10.7782 5.95744 10.8975 6.21371C11.0079 6.44716 11.125 6.67618 11.2314 6.91036C11.2703 6.99007 11.2931 7.07665 11.2984 7.16516C11.3007 7.30987 11.213 7.47041 10.9947 7.54184C10.8665 7.58382 10.6511 7.50723 10.5764 7.38572C10.5343 7.31509 10.4962 7.2422 10.4622 7.16737C10.3518 6.93209 10.2432 6.6957 10.1309 6.46041C10.0336 6.25495 9.93239 6.0517 9.83629 5.84587C9.74534 5.65256 9.65992 5.45704 9.57007 5.26336C9.46182 5.02992 9.35258 4.79672 9.24237 4.56377C9.1319 4.32811 9.0185 4.09283 8.9073 3.85717C8.7961 3.62152 8.68932 3.3936 8.58106 3.16163C8.4706 2.92266 8.36014 2.68296 8.24968 2.44472C8.11049 2.14758 7.97131 1.8508 7.82955 1.55476C7.79583 1.47649 7.7532 1.40236 7.70252 1.33384C7.63168 1.24382 7.54088 1.17151 7.43729 1.12263C7.33371 1.07374 7.22017 1.04961 7.10565 1.05216C6.91489 1.04651 6.7287 1.11111 6.58242 1.23369C6.43757 1.35471 6.33609 1.51965 6.29338 1.70352C6.26132 1.83471 6.26953 1.97252 6.31695 2.09898C6.3757 2.24851 6.44219 2.39489 6.51615 2.53751C6.62661 2.76985 6.73965 3.00109 6.84754 3.23416C7.04931 3.66607 7.24778 4.09946 7.44993 4.53136C7.57328 4.795 7.70215 5.05569 7.8255 5.31933C7.98935 5.66839 8.14952 6.01893 8.31264 6.36873C8.44114 6.64341 8.57039 6.91662 8.70073 7.19094C8.83365 7.47409 8.96437 7.75835 9.09766 8.0415C9.2512 8.36773 9.40696 8.69286 9.56124 9.0191C9.67575 9.26101 9.78879 9.50329 9.90293 9.7452C9.98173 9.91274 10.062 10.0795 10.1408 10.2467C10.231 10.4382 10.3249 10.6285 10.4085 10.8222C10.4604 10.9408 10.5189 11.0571 10.467 11.1993C10.4408 11.2736 10.3945 11.3392 10.3332 11.3887C10.2718 11.4383 10.198 11.4698 10.1198 11.4798C10.0237 11.489 9.93865 11.4574 9.85359 11.4268C9.69747 11.3712 9.54393 11.3075 9.38891 11.2486C9.20481 11.1786 9.02071 11.1105 8.8366 11.0409C8.6687 10.9776 8.50079 10.9132 8.33289 10.8495C8.10497 10.7633 7.87742 10.676 7.64913 10.5917C7.56281 10.5545 7.47302 10.5259 7.38107 10.5063C7.21625 10.4816 7.04798 10.5156 6.90571 10.6024C6.72639 10.7032 6.59212 10.8684 6.53014 11.0645C6.48904 11.187 6.48355 11.3186 6.51431 11.4441C6.57266 11.6698 6.71163 11.8663 6.90498 11.9964C7.0136 12.0734 7.12922 12.1404 7.24115 12.2126C7.61703 12.4588 7.97801 12.7271 8.32221 13.016C8.87048 13.4685 9.41174 13.9295 9.9578 14.385C10.5039 14.8405 11.0525 15.282 11.6287 15.694C12.0765 16.014 12.5342 16.3174 13.0279 16.5611C13.1962 16.6443 13.3729 16.7114 13.5482 16.782C13.636 16.8154 13.7258 16.8434 13.817 16.8656C13.9161 16.8942 14.0173 16.9148 14.1197 16.9271C14.2422 16.9371 14.3653 16.9371 14.4879 16.9271C14.57 16.9229 14.6507 16.9048 14.7268 16.8737C14.9794 16.7633 15.2283 16.6462 15.4776 16.5295C15.7144 16.419 15.9497 16.3037 16.1864 16.1922C16.4578 16.064 16.7299 15.9377 17.002 15.8111C17.2104 15.7129 17.4191 15.6156 17.628 15.5191C17.8323 15.4245 18.0374 15.3309 18.2418 15.2356C18.4038 15.1619 18.5647 15.082 18.726 15.0054C18.8022 14.9733 18.8686 14.9216 18.9185 14.8556C19.0467 14.6752 19.1818 14.4992 19.3059 14.3158C19.4584 14.0885 19.5908 13.8484 19.7017 13.5981C19.8195 13.3345 19.9311 13.0676 19.9926 12.7833C20.0246 12.636 20.0751 12.4887 20.0964 12.3392C20.1277 12.1187 20.141 11.8944 20.1616 11.672Z" fill="#FCFCFC" stroke="#FCFCFC" stroke-width="0.3"/>
</svg>
