<svg width="47" height="48" viewBox="0 0 47 48" fill="none" xmlns="http://www.w3.org/2000/svg">
<path fill-rule="evenodd" clip-rule="evenodd" d="M25.575 38.4C26.8083 38.4 27.991 38.9057 28.863 39.8059C29.7351 40.7061 30.225 41.927 30.225 43.2C30.225 44.473 29.7351 45.6939 28.863 46.5941C27.991 47.4943 26.8083 48 25.575 48C24.3417 48 23.159 47.4943 22.287 46.5941C21.4149 45.6939 20.925 44.473 20.925 43.2C20.925 41.927 21.4149 40.7061 22.287 39.8059C23.159 38.9057 24.3417 38.4 25.575 38.4ZM11.0228 31.2C12.5644 31.2 14.0428 31.8321 15.1329 32.9574C16.2229 34.0826 16.8353 35.6087 16.8353 37.2C16.8353 38.7913 16.2229 40.3174 15.1329 41.4426C14.0428 42.5679 12.5644 43.2 11.0228 43.2C9.48125 43.2 8.00282 42.5679 6.91277 41.4426C5.82271 40.3174 5.21032 38.7913 5.21032 37.2C5.21032 35.6087 5.82271 34.0826 6.91277 32.9574C8.00282 31.8321 9.48125 31.2 11.0228 31.2ZM37.9417 32.4C39.1749 32.4 40.3577 32.9057 41.2297 33.8059C42.1018 34.7061 42.5917 35.927 42.5917 37.2C42.5917 38.473 42.1018 39.6939 41.2297 40.5941C40.3577 41.4943 39.1749 42 37.9417 42C36.7084 42 35.5257 41.4943 34.6536 40.5941C33.7816 39.6939 33.2917 38.473 33.2917 37.2C33.2917 35.927 33.7816 34.7061 34.6536 33.8059C35.5257 32.9057 36.7084 32.4 37.9417 32.4ZM43.0125 22.3656C43.9374 22.3656 44.8245 22.7449 45.4785 23.42C46.1326 24.0951 46.5 25.0108 46.5 25.9656C46.5 26.9204 46.1326 27.8361 45.4785 28.5112C44.8245 29.1863 43.9374 29.5656 43.0125 29.5656C42.0876 29.5656 41.2005 29.1863 40.5465 28.5112C39.8924 27.8361 39.525 26.9204 39.525 25.9656C39.525 25.0108 39.8924 24.0951 40.5465 23.42C41.2005 22.7449 42.0876 22.3656 43.0125 22.3656ZM5.8125 14.4C7.35407 14.4 8.8325 15.0321 9.92256 16.1574C11.0126 17.2826 11.625 18.8087 11.625 20.4C11.625 21.9913 11.0126 23.5174 9.92256 24.6426C8.8325 25.7679 7.35407 26.4 5.8125 26.4C4.27093 26.4 2.7925 25.7679 1.70244 24.6426C0.612387 23.5174 0 21.9913 0 20.4C0 18.8087 0.612387 17.2826 1.70244 16.1574C2.7925 15.0321 4.27093 14.4 5.8125 14.4ZM41.3524 12.4968C41.9691 12.4968 42.5604 12.7497 42.9965 13.1997C43.4325 13.6498 43.6774 14.2603 43.6774 14.8968C43.6774 15.5333 43.4325 16.1438 42.9965 16.5939C42.5604 17.0439 41.9691 17.2968 41.3524 17.2968C40.7358 17.2968 40.1444 17.0439 39.7084 16.5939C39.2724 16.1438 39.0274 15.5333 39.0274 14.8968C39.0274 14.2603 39.2724 13.6498 39.7084 13.1997C40.1444 12.7497 40.7358 12.4968 41.3524 12.4968ZM18.6 0C20.4499 0 22.224 0.758569 23.5321 2.10883C24.8401 3.45909 25.575 5.29044 25.575 7.2C25.575 9.10956 24.8401 10.9409 23.5321 12.2912C22.224 13.6414 20.4499 14.4 18.6 14.4C16.7501 14.4 14.976 13.6414 13.6679 12.2912C12.3599 10.9409 11.625 9.10956 11.625 7.2C11.625 5.29044 12.3599 3.45909 13.6679 2.10883C14.976 0.758569 16.7501 0 18.6 0V0ZM36.0375 7.2C36.3458 7.2 36.6415 7.32643 36.8595 7.55147C37.0775 7.77652 37.2 8.08174 37.2 8.4C37.2 8.71826 37.0775 9.02348 36.8595 9.24853C36.6415 9.47357 36.3458 9.6 36.0375 9.6C35.7292 9.6 35.4335 9.47357 35.2155 9.24853C34.9975 9.02348 34.875 8.71826 34.875 8.4C34.875 8.08174 34.9975 7.77652 35.2155 7.55147C35.4335 7.32643 35.7292 7.2 36.0375 7.2Z" fill="#2CB6BE"/>
</svg>
