<svg width="25" height="20" viewBox="0 0 25 20" fill="none" xmlns="http://www.w3.org/2000/svg">
<path d="M24.2812 11.9188C24.034 11.4817 23.6991 11.1044 23.299 10.8125C22.8989 10.5205 22.443 10.3207 21.9619 10.2266C21.9619 10.0511 21.9819 9.87794 21.9909 9.70479C21.9948 9.63414 21.9849 9.56341 21.9618 9.4968C21.9387 9.4302 21.9028 9.36911 21.8563 9.31717C21.8099 9.26523 21.7537 9.22351 21.6913 9.19451C21.6289 9.16551 21.5615 9.14983 21.4931 9.14839C21.4559 6.70891 20.4928 4.38236 18.8117 2.67082C17.1305 0.959283 14.8661 0 12.5071 0C10.1481 0 7.8837 0.959283 6.20255 2.67082C4.52139 4.38236 3.5583 6.70891 3.52113 9.14839C3.45255 9.14893 3.38478 9.1638 3.3219 9.1921C3.25902 9.22041 3.20232 9.26156 3.1552 9.3131C3.10808 9.36463 3.07152 9.42549 3.0477 9.49201C3.02389 9.55852 3.01333 9.62933 3.01664 9.70018C3.01664 9.87333 3.03449 10.0465 3.04565 10.2219C2.56296 10.3157 2.10543 10.5158 1.70409 10.8086C1.30275 11.1014 0.96701 11.48 0.71964 11.9188C-0.173265 13.4426 -0.226837 15.0356 0.512042 16.6286C0.724858 17.1286 1.0462 17.5711 1.45114 17.9219C1.85608 18.2726 2.33372 18.5221 2.84699 18.651C2.90313 18.6794 2.95236 18.7205 2.99101 18.7713C3.02966 18.822 3.05673 18.8812 3.07021 18.9443C3.09775 19.1619 3.18887 19.3657 3.33139 19.5284C3.77784 19.9901 4.43412 20.0247 5.0413 19.9901C5.24852 19.9892 5.45319 19.9428 5.64178 19.8539C5.83037 19.7651 5.99858 19.6359 6.13531 19.4749C6.27204 19.3138 6.37416 19.1246 6.43492 18.9197C6.49569 18.7148 6.51371 18.4989 6.48781 18.2863V10.8984C6.51438 10.6786 6.49549 10.4555 6.43238 10.2439C6.36928 10.0322 6.26341 9.83688 6.12178 9.67075C5.98015 9.50463 5.806 9.37153 5.61088 9.28028C5.41575 9.18903 5.20411 9.14172 4.98996 9.14146C5.06363 4.94192 8.39193 2.40233 12.4904 2.40233C16.5888 2.40233 19.9193 4.94192 19.993 9.14146C19.7889 9.14149 19.5869 9.18448 19.3993 9.26783C19.2117 9.35117 19.0425 9.47312 18.902 9.62625C18.7614 9.77938 18.6525 9.96049 18.5818 10.1586C18.5111 10.3566 18.4801 10.5675 18.4907 10.7783V18.2978C18.4675 18.5093 18.4876 18.7235 18.5497 18.9265C18.6118 19.1294 18.7146 19.3165 18.8512 19.4757C18.9879 19.6349 19.1554 19.7626 19.3429 19.8504C19.5303 19.9382 19.7336 19.9842 19.9394 19.9855C20.5466 20.0109 21.2051 19.9693 21.6493 19.5237C21.7914 19.3608 21.8824 19.1571 21.9105 18.9396C21.9237 18.8764 21.9506 18.8171 21.9893 18.7663C22.028 18.7155 22.0774 18.6745 22.1337 18.6464C22.647 18.5175 23.1246 18.268 23.5296 17.9172C23.9345 17.5665 24.2559 17.124 24.4687 16.624C25.2277 15.0333 25.1808 13.4403 24.2812 11.9188Z" fill="#FCFCFC"/>
</svg>
