<svg width="173" height="129" viewBox="0 0 173 129" fill="none" xmlns="http://www.w3.org/2000/svg">
<path d="M117.605 32.5108L117.726 33.3706H118.595H119.136C123.259 33.3726 127.343 34.188 131.151 35.7701C134.959 37.3521 138.418 39.6698 141.33 42.5903L141.33 42.5906C147.223 48.4964 150.532 56.4982 150.532 64.8407C150.532 73.1832 147.223 81.185 141.33 87.0908L141.33 87.091C138.417 90.0128 134.956 92.3312 131.146 93.9133C127.336 95.4954 123.251 96.3101 119.125 96.3108L119.125 96.9505L119.06 96.9362V96.3108L38.1339 96.3108L38.1249 96.3108C32.906 96.3578 27.7371 95.292 22.9625 93.1845C18.1878 91.0769 13.9171 87.9761 10.435 84.0885L10.4344 84.0879C6.06399 79.2164 3.06766 73.2703 1.75264 66.8591C0.437616 60.448 0.851214 53.8024 2.95103 47.6038C5.05084 41.4052 8.76132 35.8765 13.7021 31.5845C18.6428 27.2925 24.6361 24.3916 31.0675 23.1793L31.0676 23.1793C36.1934 22.2122 41.4669 22.3559 46.5323 23.6007L47.3503 23.8017L47.6874 23.0298C50.8808 15.7176 56.3686 9.64419 63.3206 5.7281C70.2725 1.81209 78.3104 0.266303 86.2189 1.32452C94.1335 2.39363 101.482 6.01846 107.148 11.6477C112.813 17.2771 116.485 24.6029 117.605 32.5108ZM119.168 87.4874H119.169C122.139 87.4845 125.078 86.8959 127.82 85.7555C130.561 84.6151 133.051 82.9452 135.147 80.8413C137.242 78.7375 138.902 76.2411 140.031 73.495C141.161 70.7489 141.738 67.807 141.729 64.8377C141.722 58.842 139.341 53.0932 135.105 48.8493C130.869 44.605 125.124 42.2119 119.128 42.194H119.125H110.099L108.892 33.7799C108.892 33.7789 108.891 33.7778 108.891 33.7767C108.048 27.751 105.262 22.1648 100.956 17.8665C96.6486 13.5674 91.056 10.7915 85.0274 9.96051L85.0258 9.96029C78.9945 9.13875 72.8601 10.318 67.5633 13.3173C62.2676 16.3159 58.1012 20.9682 55.7027 26.5613C55.7022 26.5625 55.7016 26.5637 55.7011 26.5649L52.433 34.0432L44.494 32.1885C42.4168 31.6738 40.2872 31.3994 38.1473 31.3707L38.1473 31.3706H38.1339C30.7038 31.3706 23.5757 34.3225 18.3329 39.5877L18.3324 39.5881C14.4265 43.5155 11.7689 48.51 10.6936 53.9437C9.61838 59.3773 10.1735 65.0076 12.2893 70.1266C14.405 75.2457 17.9869 79.625 22.5846 82.7139C27.1823 85.8029 32.5906 87.4636 38.1296 87.4874H38.1339H43.2967H119.168Z" fill="#EFEFEF" stroke="#222222" stroke-width="2"/>
<path d="M133.363 125.066C138.601 125.066 142.846 120.82 142.846 115.583C142.846 110.346 138.601 106.1 133.363 106.1C128.126 106.1 123.88 110.346 123.88 115.583C123.88 120.82 128.126 125.066 133.363 125.066Z" fill="#EFEFEF" stroke="#222222" stroke-width="6" stroke-linejoin="round"/>
<path d="M160.035 91.6583L160.035 91.6583C159.153 93.0096 157.78 93.9654 156.207 94.3237C154.634 94.682 152.982 94.4148 151.602 93.5785L151.583 93.5669C147.003 90.7449 141.829 89.0291 136.47 88.5555C135.768 88.4935 135.111 88.1866 134.613 87.6885L127.676 80.7518C126.867 79.9433 126.589 78.7456 126.957 77.6633C127.326 76.581 128.278 75.8023 129.411 75.6554C130.772 75.479 132.125 75.4791 133.283 75.4792C133.309 75.4792 133.335 75.4792 133.361 75.4792L160.035 91.6583ZM160.035 91.6583L160.041 91.6485M160.035 91.6583L160.041 91.6485M160.041 91.6485L160.279 91.2812L160.281 91.2778M160.041 91.6485L160.281 91.2778M160.281 91.2778C160.731 90.5798 161.038 89.7992 161.184 88.9814C161.33 88.1637 161.311 87.3251 161.13 86.5145C160.949 85.7039 160.608 84.9375 160.127 84.2599C159.647 83.5823 159.036 83.007 158.331 82.5676L158.331 82.5675M160.281 91.2778L158.331 82.5675M158.331 82.5675L158.321 82.5611M158.331 82.5675L158.321 82.5611M158.321 82.5611C150.821 77.9278 142.178 75.4755 133.363 75.4792L158.321 82.5611Z" fill="#EFEFEF" stroke="#222222" stroke-width="6" stroke-linejoin="round"/>
<path d="M166.865 69.484L166.846 69.4724C159.286 64.7571 150.815 61.6913 141.988 60.4755C133.161 59.2598 124.177 59.9215 115.624 62.4174C114.606 62.7143 113.821 63.5261 113.558 64.553C113.295 65.5798 113.593 66.6691 114.343 67.4186L120.026 73.102C120.746 73.8218 121.782 74.1275 122.777 73.9138C135.592 71.1628 148.974 73.5188 160.078 80.4807C160.1 80.4948 160.123 80.5085 160.146 80.522C161.518 81.3328 163.15 81.5856 164.703 81.2283C166.257 80.871 167.614 79.9307 168.494 78.6017L168.512 78.5747L168.742 78.2192C169.197 77.5289 169.511 76.7553 169.665 75.943C169.82 75.1243 169.811 74.2827 169.637 73.4677C169.463 72.6526 169.129 71.8804 168.653 71.1964C168.176 70.5123 167.569 69.9302 166.865 69.484Z" fill="#EFEFEF" stroke="#222222" stroke-width="6" stroke-linejoin="round"/>
<path d="M98.8271 59.8913C97.6555 61.0629 97.6555 62.9624 98.8271 64.134L102.594 67.901C101.637 68.4253 100.694 68.975 99.7651 69.5494C99.0547 69.9848 98.4383 70.5576 97.9521 71.2343C97.4639 71.9137 97.1168 72.6841 96.9312 73.4998C96.7456 74.3156 96.7253 75.1603 96.8716 75.984C97.0177 76.8069 97.3271 77.5923 97.7814 78.2938C97.7815 78.2939 97.7816 78.2941 97.7817 78.2942C97.782 78.2948 97.7824 78.2953 97.7827 78.2958L98.0191 78.6611L98.0368 78.6882C98.9172 80.0172 100.274 80.9574 101.828 81.3147C103.382 81.6721 105.013 81.4192 106.386 80.6084C106.41 80.5942 106.433 80.5797 106.457 80.5648C108.277 79.4198 110.168 78.393 112.119 77.4903L114.173 79.5446C112.116 80.4433 110.123 81.4872 108.21 82.6693L108.186 82.6845C107.484 83.1273 106.877 83.705 106.401 84.3842L108.857 86.107L106.401 84.3842C105.925 85.0633 105.588 85.8303 105.41 86.6407C105.233 87.4511 105.218 88.2886 105.367 89.1047C105.516 89.9195 105.824 90.6967 106.275 91.3913C106.276 91.3924 106.277 91.3936 106.278 91.3947L106.512 91.7566L106.529 91.7837C107.41 93.1127 108.767 94.0529 110.321 94.4102C111.874 94.7675 113.506 94.5147 114.878 93.7039C114.896 93.6935 114.913 93.683 114.931 93.6722C117.848 91.8677 121.014 90.5068 124.325 89.6317L126.528 91.8351C123.114 92.5798 119.83 93.8832 116.814 95.7063C116.8 95.7146 116.786 95.7232 116.772 95.7318C116.07 96.172 115.462 96.7478 114.985 97.4254C114.508 98.1031 114.17 98.869 113.992 99.6786C113.814 100.488 113.798 101.325 113.947 102.141L116.899 101.602L113.947 102.141C114.094 102.945 114.398 103.713 114.84 104.4L115.044 104.726C115.063 104.757 115.083 104.787 115.103 104.817C116.013 106.162 117.408 107.102 118.996 107.441C120.572 107.778 122.217 107.496 123.591 106.654C126.099 105.169 128.914 104.279 131.82 104.053C134.536 103.841 137.264 104.216 139.82 105.147L155.014 120.321C156.185 121.491 158.084 121.49 159.255 120.319L162.302 117.272C163.473 116.101 163.473 114.201 162.302 113.03L106.117 56.8444C105.554 56.2818 104.791 55.9657 103.995 55.9657C103.2 55.9657 102.437 56.2818 101.874 56.8444L98.8271 59.8913Z" fill="#EFEFEF" stroke="#222222" stroke-width="6" stroke-linejoin="round"/>
</svg>
