<svg width="173" height="129" viewBox="0 0 173 129" fill="none" xmlns="http://www.w3.org/2000/svg">
    <path d="M119.35 96.3108L119.35 96.9505L119.285 96.9362V96.3108L38.3588 96.3108L38.3498 96.3108C33.1309 96.3578 27.9619 95.292 23.1873 93.1844C18.4127 91.0769 14.142 87.9761 10.6598 84.0885L10.6593 84.0879C6.28884 79.2164 3.29251 73.2703 1.97749 66.8591C0.66247 60.448 1.07607 53.8024 3.17588 47.6038C5.27569 41.4052 8.98618 35.8765 13.9269 31.5845C18.8677 27.2925 24.861 24.3916 31.2923 23.1793L31.2925 23.1793C36.4182 22.2122 41.6917 22.3559 46.7572 23.6007L47.5751 23.8017L47.9122 23.0298C51.1057 15.7176 56.5934 9.64419 63.5454 5.7281C70.4973 1.81209 78.5353 0.266303 86.4438 1.32452C94.3584 2.39363 101.707 6.01846 107.373 11.6477C113.038 17.2771 116.71 24.6029 117.83 32.5108L118.82 32.3706V33.3706H119.36C123.484 33.3726 127.567 34.188 131.376 35.7701C135.184 37.3521 138.643 39.6698 141.555 42.5903L141.555 42.5906C147.447 48.4964 150.756 56.4982 150.756 64.8407C150.756 73.1832 147.447 81.185 141.555 87.0908L141.555 87.091C138.642 90.0128 135.181 92.3312 131.371 93.9133C127.561 95.4954 123.476 96.3101 119.35 96.3108ZM119.393 87.4874H119.394C122.364 87.4845 125.303 86.8959 128.045 85.7555C130.786 84.6151 133.276 82.9452 135.371 80.8413C137.467 78.7375 139.127 76.2411 140.256 73.495C141.386 70.7489 141.962 67.807 141.953 64.8377C141.947 58.8421 139.565 53.0932 135.33 48.8493C131.094 44.605 125.349 42.2119 119.353 42.194H119.35H110.324L109.117 33.7799C109.117 33.7795 109.116 33.7792 109.116 33.7788C108.274 27.7523 105.488 22.1653 101.181 17.8665C96.8734 13.5674 91.2808 10.7915 85.2523 9.96051L85.2507 9.96029C79.2193 9.13875 73.085 10.318 67.7881 13.3173C62.4923 16.3159 58.3259 20.9684 55.9274 26.5616C55.9269 26.5627 55.9264 26.5638 55.926 26.5649L52.6579 34.0432L44.7189 32.1885C42.6416 31.6738 40.5121 31.3994 38.3722 31.3707V31.3706H38.3588C30.9286 31.3706 23.8005 34.3225 18.5577 39.5877L18.5573 39.5881C14.6514 43.5155 11.9937 48.51 10.9185 53.9437C9.84323 59.3773 10.3984 65.0076 12.5141 70.1266C14.6298 75.2457 18.2117 79.625 22.8095 82.7139C27.4072 85.8029 32.8155 87.4636 38.3545 87.4874H38.3588H43.5215H119.393Z" fill="#222222" stroke="white" stroke-width="2"/>
    <path d="M133.588 125.066C138.825 125.066 143.071 120.82 143.071 115.583C143.071 110.346 138.825 106.1 133.588 106.1C128.351 106.1 124.105 110.346 124.105 115.583C124.105 120.82 128.351 125.066 133.588 125.066Z" fill="#222222" stroke="white" stroke-width="6" stroke-linejoin="round"/>
    <path d="M160.506 91.2778L160.504 91.2812L160.266 91.6485L157.747 90.0188L160.26 91.6583C159.378 93.0096 158.005 93.9654 156.432 94.3237C154.858 94.682 153.207 94.4148 151.827 93.5785L151.808 93.5669C147.228 90.7449 142.053 89.0291 136.695 88.5555C135.993 88.4935 135.335 88.1866 134.837 87.6885L127.901 80.7518C127.092 79.9433 126.814 78.7456 127.182 77.6633C127.551 76.581 128.502 75.8023 129.636 75.6554C130.997 75.479 132.35 75.4791 133.508 75.4792C133.534 75.4792 133.56 75.4792 133.586 75.4792L160.506 91.2778ZM160.506 91.2778C160.956 90.5798 161.263 89.7992 161.409 88.9814C161.555 88.1637 161.536 87.3251 161.355 86.5145C161.173 85.7039 160.833 84.9375 160.352 84.2599C159.872 83.5823 159.261 83.007 158.556 82.5676L158.556 82.5675M160.506 91.2778L158.556 82.5675M158.556 82.5675L158.546 82.5611M158.556 82.5675L158.546 82.5611M158.546 82.5611C151.046 77.9278 142.403 75.4755 133.588 75.4792L158.546 82.5611Z" fill="#222222" stroke="white" stroke-width="6" stroke-linejoin="round"/>
    <path d="M115.849 62.4174C114.831 62.7143 114.046 63.5261 113.783 64.553C113.52 65.5798 113.818 66.6691 114.568 67.4186L120.251 73.102C120.971 73.8218 122.007 74.1275 123.002 73.9138C135.816 71.1628 149.198 73.5188 160.303 80.4807C160.325 80.4948 160.348 80.5085 160.371 80.522C161.743 81.3328 163.375 81.5856 164.928 81.2283C166.482 80.871 167.839 79.9307 168.719 78.6017L168.737 78.5747L168.967 78.2191C169.422 77.5288 169.735 76.7552 169.89 75.943C170.045 75.1243 170.036 74.2827 169.862 73.4677C169.688 72.6526 169.353 71.8804 168.877 71.1964C168.401 70.5123 167.794 69.9302 167.09 69.484L165.484 72.0179L167.071 69.4724C159.511 64.7571 151.04 61.6913 142.213 60.4755C133.386 59.2598 124.402 59.9215 115.849 62.4174Z" fill="#222222" stroke="white" stroke-width="6" stroke-linejoin="round"/>
    <path d="M99.0519 59.8913C97.8803 61.0629 97.8803 62.9624 99.0519 64.134L102.819 67.901C101.862 68.4253 100.918 68.975 99.9899 69.5494C99.2795 69.9849 98.6632 70.5577 98.1769 71.2343C97.6887 71.9137 97.3416 72.6841 97.156 73.4998C96.9705 74.3156 96.9502 75.1603 97.0964 75.984C97.2427 76.8076 97.5524 77.5936 98.0074 78.2955C98.0074 78.2956 98.0075 78.2957 98.0076 78.2958L98.2439 78.6611L98.2617 78.6882C99.1421 80.0172 100.499 80.9574 102.053 81.3147C103.606 81.6721 105.238 81.4192 106.61 80.6084C106.634 80.5942 106.658 80.5797 106.682 80.5648C108.502 79.4198 110.393 78.393 112.343 77.4903L114.398 79.5446C112.341 80.4433 110.348 81.4872 108.435 82.6693L108.41 82.6845C107.709 83.1273 107.102 83.705 106.626 84.3842C106.149 85.0633 105.813 85.8303 105.635 86.6407C105.458 87.4511 105.443 88.2886 105.592 89.1047C105.74 89.9195 106.049 90.6967 106.5 91.3914C106.501 91.3925 106.502 91.3936 106.502 91.3947L106.737 91.7566L106.754 91.7836C107.635 93.1127 108.992 94.0529 110.545 94.4102C112.099 94.7675 113.73 94.5147 115.103 93.7039C115.121 93.6935 115.138 93.683 115.155 93.6722C118.073 91.8677 121.239 90.5068 124.55 89.6317L126.753 91.8351C123.339 92.5798 120.055 93.8832 117.039 95.7063C117.025 95.7146 117.011 95.7232 116.997 95.7318C116.295 96.172 115.687 96.7478 115.21 97.4254C114.732 98.1031 114.395 98.869 114.217 99.6786C114.038 100.488 114.023 101.325 114.172 102.141C114.319 102.945 114.622 103.713 115.065 104.4L115.269 104.726C115.288 104.757 115.308 104.787 115.328 104.817C116.238 106.162 117.633 107.102 119.22 107.441C120.797 107.778 122.442 107.496 123.816 106.654C126.324 105.169 129.139 104.279 132.045 104.053C134.761 103.841 137.489 104.216 140.044 105.147L155.239 120.321C156.41 121.491 158.309 121.49 159.48 120.319L162.527 117.272C163.089 116.71 163.405 115.946 163.405 115.151C163.405 114.355 163.089 113.592 162.527 113.03L106.342 56.8444C105.779 56.2818 105.016 55.9657 104.22 55.9657C103.425 55.9657 102.661 56.2818 102.099 56.8444L99.0519 59.8913Z" fill="#222222" stroke="white" stroke-width="6" stroke-linejoin="round"/>
</svg>
