
<svg version="1.0" xmlns="http://www.w3.org/2000/svg"
    width="346.000000pt" height="257.000000pt" viewBox="0 0 346.000000 257.000000"
    preserveAspectRatio="xMidYMid meet">

    <g transform="translate(0.000000,257.000000) scale(0.100000,-0.100000)"
        fill="#000000" stroke="none">
        <path d="M1490 2515 c-220 -50 -405 -191 -493 -377 -26 -56 -35 -67 -52 -63
-336 82 -671 -72 -825 -377 -55 -110 -73 -202 -68 -346 4 -95 10 -133 33 -201
62 -182 202 -339 372 -418 148 -68 121 -66 927 -70 l729 -4 -18 28 c-30 46
-45 77 -45 96 0 16 -39 17 -672 17 -748 0 -740 0 -877 67 -95 47 -193 143
-243 239 -122 233 -81 506 106 689 155 152 344 198 579 141 l99 -24 15 37 c76
187 157 294 274 364 100 59 176 79 299 80 88 0 117 -4 177 -25 94 -34 149 -66
220 -132 104 -96 159 -214 183 -393 l13 -93 92 0 c121 0 195 -15 280 -55 85
-41 169 -124 213 -211 l30 -60 67 -13 c37 -6 69 -10 72 -7 10 9 -46 146 -81
199 -105 158 -307 276 -473 277 -36 0 -43 3 -43 20 0 15 -7 20 -25 20 -20 0
-25 5 -25 23 0 31 -36 140 -65 197 -87 172 -266 317 -450 366 -87 22 -246 27
-325 9z"/>
        <path d="M2055 1360 l-29 -30 62 -63 c34 -34 62 -66 62 -70 0 -3 -24 -18 -52
-33 -68 -34 -98 -62 -98 -91 0 -25 40 -73 62 -73 7 -1 54 21 105 47 l92 48 66
-65 c36 -35 65 -67 65 -71 0 -3 -30 -18 -67 -33 -92 -36 -147 -76 -151 -107
-4 -30 32 -79 58 -79 10 0 56 18 102 40 45 22 104 45 131 52 l48 12 76 -76 76
-76 -49 -7 c-27 -3 -78 -15 -114 -26 -137 -42 -185 -91 -143 -147 27 -36 59
-38 119 -8 90 45 190 57 296 35 50 -11 61 -20 214 -170 l160 -159 29 30 29 31
-560 560 -560 560 -29 -31z"/>
        <path d="M2540 1305 c-8 -2 -48 -9 -87 -15 -40 -7 -73 -15 -73 -19 0 -4 22
-29 49 -55 l49 -49 194 -1 c179 -2 199 -4 283 -29 50 -15 141 -52 202 -82 62
-30 118 -55 123 -55 20 0 60 49 60 74 0 68 -240 180 -474 221 -76 13 -279 19
-326 10z"/>
        <path d="M2718 928 c66 -68 79 -76 130 -88 32 -6 101 -33 156 -58 92 -43 100
-45 124 -31 15 8 31 27 36 41 15 42 -14 74 -107 119 -100 48 -213 77 -326 85
l-86 6 73 -74z"/>
        <path d="M2621 373 c-51 -26 -76 -66 -75 -117 3 -129 168 -173 234 -63 65 106
-51 236 -159 180z"/>
    </g>
</svg>
