<svg width="25" height="20" viewBox="0 0 25 20" fill="none" xmlns="http://www.w3.org/2000/svg">
<path d="M0 15.9512V1.12288C0.04516 1.01219 0.0834131 0.895108 0.136543 0.791867C0.431411 0.22564 0.90745 -0.000531231 1.5365 9.36732e-07C7.81108 0.0056774 14.0857 0.00691951 20.3603 0.0037265C20.4314 0.0037265 20.5026 0.00372689 20.5728 0.00745207C20.9294 0.0178395 21.2679 0.167067 21.5164 0.423436C21.7649 0.679805 21.9038 1.02312 21.9037 1.38045C21.9058 6.15116 21.9058 10.9219 21.9037 15.6926C21.9054 15.995 21.8042 16.2889 21.6168 16.526C21.298 16.9384 20.8671 17.0741 20.3576 17.0736C14.0905 17.0682 7.82313 17.067 1.55563 17.0698C1.48479 17.0698 1.41395 17.0688 1.34311 17.0666C1.06352 17.0602 0.792558 16.9684 0.566488 16.8035C0.340418 16.6386 0.170022 16.4084 0.0781003 16.1439C0.0563172 16.0784 0.0265647 16.0151 0 15.9512ZM13.5581 11.8349C13.6272 11.77 13.6792 11.7231 13.7286 11.6752C14.5564 10.8472 15.3834 10.019 16.2098 9.19055C16.7777 8.62219 17.317 8.60942 17.9099 9.14904C18.6105 9.78764 19.3118 10.4271 20.0138 11.0675C20.1642 11.2043 20.3167 11.3389 20.492 11.498V1.42355H1.4159V11.1915C1.48762 11.1133 1.53544 11.0638 1.5806 11.0116C3.19007 9.13946 4.79971 7.26711 6.40953 5.39459C6.96527 4.7496 7.63841 4.75599 8.18618 5.40896C9.24877 6.67765 10.3105 7.94793 11.3713 9.21981L13.5581 11.8349Z" fill="#FCFCFC"/>
<path d="M18.4358 5.05546C18.4372 5.43614 18.3257 5.80866 18.1155 6.12582C17.9053 6.44298 17.6058 6.69049 17.255 6.837C16.9042 6.98351 16.5179 7.02242 16.145 6.9488C15.7721 6.87518 15.4295 6.69234 15.1604 6.42345C14.8914 6.15456 14.7081 5.81173 14.6337 5.4384C14.5594 5.06506 14.5974 4.67803 14.7429 4.32634C14.8884 3.97465 15.1348 3.67414 15.451 3.46288C15.7672 3.25162 16.1388 3.13913 16.5189 3.13965C17.0256 3.14271 17.5108 3.3454 17.8695 3.7039C18.2282 4.0624 18.4316 4.54791 18.4358 5.05546Z" fill="#FCFCFC"/>
<path d="M23.7192 20.0002H3.74252C3.53497 20.0025 3.33441 19.9251 3.18212 19.7839C3.02982 19.6426 2.93738 19.4482 2.9238 19.2408C2.91854 19.1327 2.93526 19.0247 2.97295 18.9234C3.01064 18.822 3.06851 18.7293 3.14305 18.651C3.21758 18.5728 3.30722 18.5105 3.40653 18.4679C3.50584 18.4254 3.61274 18.4036 3.72074 18.4037H22.5238C22.7126 18.4037 22.8938 18.3286 23.0274 18.1949C23.161 18.0611 23.2361 17.8798 23.2362 17.6906V3.74778C23.2339 3.53988 23.3112 3.339 23.4522 3.18645C23.5932 3.03391 23.7873 2.94131 23.9944 2.9277C24.1023 2.92244 24.2101 2.93919 24.3113 2.97694C24.4125 3.0147 24.505 3.07266 24.5831 3.14731C24.6613 3.22197 24.7235 3.31176 24.766 3.41123C24.8084 3.5107 24.8302 3.61778 24.8301 3.72596V18.8874C24.8301 19.1825 24.7131 19.4656 24.5047 19.6743C24.2964 19.883 24.0138 20.0002 23.7192 20.0002Z" fill="#FCFCFC"/>
</svg>
