<svg width="18" height="9" viewBox="0 0 18 9" fill="none" xmlns="http://www.w3.org/2000/svg">
<path d="M18 1.125C18 0.45 17.55 0 16.875 0H1.125C0.45 0 0 0.45 0 1.125V7.875C0 8.55 0.45 9 1.125 9H16.875C17.55 9 18 8.55 18 7.875V1.125ZM16.875 7.875H1.125V1.125H16.875V7.875Z" fill="#FCFCFC"/>
<path d="M6.75 4.5C6.75 4.79837 6.63147 5.08452 6.42049 5.29549C6.20952 5.50647 5.92337 5.625 5.625 5.625C5.32663 5.625 5.04048 5.50647 4.82951 5.29549C4.61853 5.08452 4.5 4.79837 4.5 4.5C4.5 4.20163 4.61853 3.91548 4.82951 3.70451C5.04048 3.49353 5.32663 3.375 5.625 3.375C5.92337 3.375 6.20952 3.49353 6.42049 3.70451C6.63147 3.91548 6.75 4.20163 6.75 4.5V4.5Z" fill="#FCFCFC"/>
<path d="M10.125 4.5C10.125 4.79837 10.0065 5.08452 9.79549 5.29549C9.58452 5.50647 9.29837 5.625 9 5.625C8.70163 5.625 8.41548 5.50647 8.20451 5.29549C7.99353 5.08452 7.875 4.79837 7.875 4.5C7.875 4.20163 7.99353 3.91548 8.20451 3.70451C8.41548 3.49353 8.70163 3.375 9 3.375C9.29837 3.375 9.58452 3.49353 9.79549 3.70451C10.0065 3.91548 10.125 4.20163 10.125 4.5Z" fill="#FCFCFC"/>
<path d="M13.5 4.5C13.5 4.79837 13.3815 5.08452 13.1705 5.29549C12.9595 5.50647 12.6734 5.625 12.375 5.625C12.0766 5.625 11.7905 5.50647 11.5795 5.29549C11.3685 5.08452 11.25 4.79837 11.25 4.5C11.25 4.20163 11.3685 3.91548 11.5795 3.70451C11.7905 3.49353 12.0766 3.375 12.375 3.375C12.6734 3.375 12.9595 3.49353 13.1705 3.70451C13.3815 3.91548 13.5 4.20163 13.5 4.5Z" fill="#FCFCFC"/>
</svg>
