<svg width="18" height="18" viewBox="0 0 18 18" fill="none" xmlns="http://www.w3.org/2000/svg">
<path d="M6 3V4.5H12V3C12 2.40666 12.1759 1.82664 12.5056 1.33329C12.8352 0.839943 13.3038 0.455426 13.8519 0.228363C14.4001 0.00129984 15.0033 -0.0581101 15.5853 0.0576455C16.1672 0.173401 16.7018 0.459123 17.1213 0.878681C17.5409 1.29824 17.8266 1.83279 17.9424 2.41473C18.0581 2.99667 17.9987 3.59987 17.7716 4.14805C17.5446 4.69623 17.1601 5.16476 16.6667 5.49441C16.1734 5.82405 15.5933 6 15 6H13.5V12H15C15.5933 12 16.1734 12.1759 16.6667 12.5056C17.1601 12.8352 17.5446 13.3038 17.7716 13.8519C17.9987 14.4001 18.0581 15.0033 17.9424 15.5853C17.8266 16.1672 17.5409 16.7018 17.1213 17.1213C16.7018 17.5409 16.1672 17.8266 15.5853 17.9424C15.0033 18.0581 14.4001 17.9987 13.8519 17.7716C13.3038 17.5446 12.8352 17.1601 12.5056 16.6667C12.1759 16.1734 12 15.5933 12 15V13.5H6V15C6 15.5933 5.82405 16.1734 5.49441 16.6667C5.16476 17.1601 4.69623 17.5446 4.14805 17.7716C3.59987 17.9987 2.99667 18.0581 2.41473 17.9424C1.83279 17.8266 1.29824 17.5409 0.878681 17.1213C0.459123 16.7018 0.173401 16.1672 0.0576455 15.5853C-0.0581101 15.0033 0.00129984 14.4001 0.228363 13.8519C0.455426 13.3038 0.839943 12.8352 1.33329 12.5056C1.82664 12.1759 2.40666 12 3 12H4.5V6H3C2.40666 6 1.82664 5.82405 1.33329 5.49441C0.839943 5.16476 0.455426 4.69623 0.228363 4.14805C0.00129984 3.59987 -0.0581101 2.99667 0.0576455 2.41473C0.173401 1.83279 0.459123 1.29824 0.878681 0.878681C1.29824 0.459123 1.83279 0.173401 2.41473 0.0576455C2.99667 -0.0581101 3.59987 0.00129984 4.14805 0.228363C4.69623 0.455426 5.16476 0.839943 5.49441 1.33329C5.82405 1.82664 6 2.40666 6 3ZM4.5 4.5V3C4.5 2.70333 4.41203 2.41332 4.24721 2.16665C4.08238 1.91997 3.84811 1.72771 3.57403 1.61418C3.29994 1.50065 2.99834 1.47095 2.70737 1.52882C2.41639 1.5867 2.14912 1.72956 1.93934 1.93934C1.72956 2.14912 1.5867 2.41639 1.52882 2.70737C1.47095 2.99834 1.50065 3.29994 1.61418 3.57403C1.72771 3.84811 1.91997 4.08238 2.16665 4.24721C2.41332 4.41203 2.70333 4.5 3 4.5H4.5ZM12 12V6H6V12H12ZM13.5 13.5V15C13.5 15.2967 13.588 15.5867 13.7528 15.8334C13.9176 16.08 14.1519 16.2723 14.426 16.3858C14.7001 16.4993 15.0017 16.5291 15.2926 16.4712C15.5836 16.4133 15.8509 16.2704 16.0607 16.0607C16.2704 15.8509 16.4133 15.5836 16.4712 15.2926C16.5291 15.0017 16.4993 14.7001 16.3858 14.426C16.2723 14.1519 16.08 13.9176 15.8334 13.7528C15.5867 13.588 15.2967 13.5 15 13.5H13.5ZM15 4.5C15.2967 4.5 15.5867 4.41203 15.8334 4.24721C16.08 4.08238 16.2723 3.84811 16.3858 3.57403C16.4993 3.29994 16.5291 2.99834 16.4712 2.70737C16.4133 2.41639 16.2704 2.14912 16.0607 1.93934C15.8509 1.72956 15.5836 1.5867 15.2926 1.52882C15.0017 1.47095 14.7001 1.50065 14.426 1.61418C14.1519 1.72771 13.9176 1.91997 13.7528 2.16665C13.588 2.41332 13.5 2.70333 13.5 3V4.5H15ZM4.5 13.5H3C2.70333 13.5 2.41332 13.588 2.16665 13.7528C1.91997 13.9176 1.72771 14.1519 1.61418 14.426C1.50065 14.7001 1.47095 15.0017 1.52882 15.2926C1.5867 15.5836 1.72956 15.8509 1.93934 16.0607C2.14912 16.2704 2.41639 16.4133 2.70737 16.4712C2.99834 16.5291 3.29994 16.4993 3.57403 16.3858C3.84811 16.2723 4.08238 16.08 4.24721 15.8334C4.41203 15.5867 4.5 15.2967 4.5 15V13.5Z" fill="#FCFCFC"/>
</svg>
