<svg width="17" height="17" viewBox="0 0 17 17" fill="none" xmlns="http://www.w3.org/2000/svg">
<path d="M2.94705 3.45378C4.29444 1.97053 6.1388 1.10078 8.14036 1.00469C10.142 0.908499 12.0611 1.59776 13.5444 2.94515L13.8535 3.22591L12.7662 3.27811C12.4916 3.29129 12.2796 3.52464 12.2928 3.79933C12.3056 4.06588 12.5257 4.2734 12.7897 4.2734C12.7978 4.2734 12.8059 4.2732 12.814 4.27281L15.1019 4.163C15.3766 4.14982 15.5886 3.91647 15.5754 3.64178L15.4656 1.35382C15.4524 1.07913 15.2186 0.867228 14.9444 0.880343C14.6697 0.893525 14.4577 1.12688 14.4709 1.40157L14.5231 2.4888L14.214 2.208C12.5338 0.681788 10.3598 -0.0986512 8.09261 0.00998939C5.82537 0.118829 3.73616 1.10403 2.20994 2.78418C0.270218 4.91944 -0.451286 7.86246 0.279847 10.6567C0.338417 10.8805 0.540259 11.0287 0.761226 11.0287C0.802962 11.0287 0.845363 11.0235 0.887597 11.0124C1.15365 10.9428 1.31286 10.6707 1.24327 10.4046C0.597667 7.93737 1.2346 5.33889 2.94705 3.45378Z" fill="#222222"/>
<path d="M16.7202 6.3395C16.6505 6.07348 16.3784 5.91414 16.1124 5.98383C15.8464 6.05346 15.6872 6.32556 15.7568 6.59162C16.4024 9.05891 15.7655 11.6573 14.053 13.5425C12.7056 15.0257 10.8613 15.8955 8.85967 15.9915C8.73655 15.9975 8.61396 16.0004 8.49154 16.0004C6.6239 16.0003 4.8477 15.3156 3.45569 14.0511L3.1466 13.7703L4.23381 13.7181C4.5085 13.705 4.7205 13.4716 4.70728 13.1969C4.69413 12.9222 4.46038 12.7101 4.18609 12.7234L1.89817 12.8332C1.62348 12.8464 1.41147 13.0798 1.42469 13.3545L1.53449 15.6424C1.54727 15.909 1.76738 16.1165 2.03144 16.1165C2.03948 16.1165 2.04758 16.1163 2.05568 16.1159C2.33037 16.1027 2.54237 15.8694 2.52916 15.5947L2.47696 14.5074L2.78605 14.7882C4.36293 16.2207 6.37468 16.9963 8.49038 16.9963C8.62894 16.9963 8.76806 16.993 8.90738 16.9863C11.1746 16.8774 13.2638 15.8922 14.79 14.2121C16.7298 12.0768 17.4513 9.13378 16.7202 6.3395Z" fill="#222222"/>
<path d="M12.889 12.0004V10.8892C12.889 10.2999 12.6549 9.73463 12.2381 9.31788C11.8214 8.90112 11.2562 8.66699 10.6668 8.66699H6.22226C5.63288 8.66699 5.06764 8.90112 4.65088 9.31788C4.23413 9.73463 4 10.2999 4 10.8892V12.0004" fill="#222222"/>
<path d="M8.44438 7.44451C9.6717 7.44451 10.6666 6.44958 10.6666 5.22226C10.6666 3.99494 9.6717 3 8.44438 3C7.21706 3 6.22212 3.99494 6.22212 5.22226C6.22212 6.44958 7.21706 7.44451 8.44438 7.44451Z" fill="#222222"/>
</svg>
