<svg width="128" height="128" viewBox="0 0 128 128" fill="none" xmlns="http://www.w3.org/2000/svg">
<circle cx="67" cy="67" r="67" fill="#EFEFEF"/>
<path d="M117.966 108.281C117.897 108.189 117.824 108.104 117.763 108.012C114.104 102.701 109.215 98.6162 103.361 95.501C98.6239 93.0282 93.5292 91.2026 88.2335 90.0804C84.0517 89.1679 79.7984 88.5668 75.514 88.2831C71.2478 87.9812 66.9657 87.9207 62.6916 88.1019C56.5545 88.3087 50.4622 89.1595 44.5302 90.6381C39.1076 91.974 33.9457 94.0983 29.2348 96.9325C24.5068 99.7726 20.4756 103.509 17.4045 107.898C17.3091 108.033 17.2023 108.161 17.0954 108.299L17 108.413C23.0583 115.468 30.7462 121.162 39.4927 125.072C48.2393 128.982 57.8198 131.009 67.523 131C77.2261 130.991 86.8025 128.949 95.5411 125.023C104.28 121.097 111.956 115.39 118 108.324L117.966 108.281Z" fill="#797D83"/>
<path d="M67.5485 33.0001C62.9016 32.9905 58.3562 34.3588 54.4868 36.932C50.6175 39.5052 47.5978 43.1678 45.8096 47.4569C44.0214 51.7459 43.545 56.4689 44.4405 61.0287C45.336 65.5884 47.5632 69.7804 50.8407 73.0746C54.1182 76.3688 58.2987 78.6174 62.8539 79.5361C67.409 80.4548 72.1343 80.0025 76.4324 78.2362C80.7305 76.4699 84.4085 73.469 87.0014 69.6128C89.5944 65.7566 90.9858 61.2182 90.9999 56.5713C91.0084 53.4836 90.4085 50.4244 89.2345 47.5686C88.0604 44.7128 86.3352 42.1162 84.1574 39.9273C81.9796 37.7384 79.3919 36 76.5421 34.8114C73.6923 33.6228 70.6362 33.0073 67.5485 33.0001V33.0001Z" fill="#797D83"/>
</svg>
